# File created by Blade
# Date/Time:  Thu Jan 22 16:52:56 2015
# Frame Rate: 120.000 fps
#------------------------------------------------------
:FULLY-SPECIFIED
:DEGREES
2646
root 0.852510 37.535609 1.250579 -1.658415 2.177063 3.602871
RightUpLeg 12.755366 -3.352192 -3.866361
RightLeg -6.170041 -0.000000 0.000000
RightFoot -12.644106 -17.356350 20.690206
RightToeBase 14.076163 -0.000000 -0.000000
LeftUpLeg 9.832903 -1.350878 -1.044743
LeftLeg -3.332879 -0.000000 0.000000
LeftFoot -7.157486 14.866721 -21.959759
LeftToeBase 9.425713 -0.000000 -0.000000
Spine 1.307668 8.590967 -4.786458
RightShoulder -7.058776 -17.988430 -24.870055
RightArm 3.348781 25.261754 22.707136
RightForeArm 12.518688 -0.000000 10.735120
RightHand 2.399281 -0.000000 7.053904
RightHandThumb1 -24.326973 -0.000000 -32.862282
LeftShoulder 13.381962 11.217912 42.710196
LeftArm 1.444105 -47.750910 -40.300982
LeftForeArm 38.977170 -0.000000 12.682079
LeftHand -12.521371 -0.000000 -7.411029
LeftHandThumb1 -26.253704 0.000000 33.147579
Head -4.656901 -0.398877 8.538921
2647
root 0.853542 37.536237 1.243868 -1.627208 2.157625 3.607840
RightUpLeg 12.717434 -3.336821 -3.871398
RightLeg -6.186260 -0.000000 0.000000
RightFoot -12.616004 -17.349493 20.682465
RightToeBase 14.078493 -0.000000 -0.000000
LeftUpLeg 9.787280 -1.344061 -1.053876
LeftLeg -3.318750 -0.000000 0.000000
LeftFoot -7.166122 14.883096 -21.952821
LeftToeBase 9.449004 -0.000000 -0.000000
Spine 1.278687 8.587284 -4.802348
RightShoulder -7.047954 -17.962770 -24.869315
RightArm 3.358374 25.240488 22.711480
RightForeArm 12.525988 0.000000 10.778864
RightHand 2.404122 -0.000000 6.986276
RightHandThumb1 -24.326973 -0.000000 -32.862282
LeftShoulder 13.363484 11.243417 42.722750
LeftArm 1.442353 -47.767311 -40.287944
LeftForeArm 39.005597 -0.000000 12.668613
LeftHand -12.547406 -0.000000 -7.380122
LeftHandThumb1 -26.253704 0.000000 33.147579
Head -4.680261 -0.380853 8.534397
2648
root 0.855329 37.537021 1.238516 -1.626888 2.135627 3.605184
RightUpLeg 12.706849 -3.333423 -3.874981
RightLeg -6.192709 -0.000000 0.000000
RightFoot -12.620135 -17.326366 20.723460
RightToeBase 14.094985 -0.000000 -0.000000
LeftUpLeg 9.778302 -1.341333 -1.057074
LeftLeg -3.314782 -0.000000 0.000000
LeftFoot -7.167176 14.903794 -21.949254
LeftToeBase 9.427306 -0.000000 -0.000000
Spine 1.291289 8.590138 -4.797812
RightShoulder -7.036735 -17.963357 -24.873647
RightArm 3.390536 25.224333 22.721836
RightForeArm 12.560932 0.000000 10.789007
RightHand 2.441190 -0.000000 6.959257
RightHandThumb1 -24.326973 -0.000000 -32.862282
LeftShoulder 13.348330 11.237177 42.735966
LeftArm 1.406138 -47.788224 -40.277024
LeftForeArm 39.005088 -0.000000 12.663622
LeftHand -12.568019 -0.000000 -7.345887
LeftHandThumb1 -26.253704 0.000000 33.147579
Head -4.717214 -0.351157 8.532218
2649
root 0.857263 37.537677 1.232473 -1.621504 2.108883 3.606136
RightUpLeg 12.690359 -3.330168 -3.878995
RightLeg -6.201243 -0.000000 0.000000
RightFoot -12.626570 -17.326884 20.727876
RightToeBase 14.174836 -0.000000 -0.000000
LeftUpLeg 9.757450 -1.327353 -1.063155
LeftLeg -3.297589 -0.000000 0.000000
LeftFoot -7.175204 14.920532 -21.944393
LeftToeBase 9.450900 -0.000000 -0.000000
Spine 1.295629 8.604828 -4.796813
RightShoulder -7.024597 -17.941777 -24.879690
RightArm 3.400320 25.176676 22.720444
RightForeArm 12.547095 -0.000000 10.808118
RightHand 2.473737 -0.000000 6.912897
RightHandThumb1 -24.326973 -0.000000 -32.862282
LeftShoulder 13.332793 11.246266 42.739088
LeftArm 1.392351 -47.823299 -40.269579
LeftForeArm 39.001455 -0.000000 12.667451
LeftHand -12.541320 -0.000000 -7.375662
LeftHandThumb1 -26.253704 0.000000 33.147579
Head -4.739457 -0.335923 8.534814
2650
root 0.859976 37.537813 1.227888 -1.614451 2.080712 3.608476
RightUpLeg 12.670047 -3.346517 -3.890271
RightLeg -6.200496 -0.000000 0.000000
RightFoot -12.613484 -17.298488 20.720158
RightToeBase 14.173004 -0.000000 -0.000000
LeftUpLeg 9.740178 -1.322478 -1.073067
LeftLeg -3.285832 -0.000000 0.000000
LeftFoot -7.191231 14.943282 -21.954833
LeftToeBase 9.404989 -0.000000 -0.000000
Spine 1.291348 8.623490 -4.797317
RightShoulder -7.015926 -17.966990 -24.878385
RightArm 3.432921 25.164437 22.721757
RightForeArm 12.555128 -0.000000 10.820867
RightHand 2.508294 -0.000000 6.872778
RightHandThumb1 -24.326973 -0.000000 -32.862282
LeftShoulder 13.314316 11.244759 42.743506
LeftArm 1.387137 -47.886028 -40.277548
LeftForeArm 39.000421 0.000000 12.668861
LeftHand -12.509747 -0.000000 -7.346611
LeftHandThumb1 -26.253704 0.000000 33.147579
Head -4.751880 -0.330598 8.536194
2651
root 0.861330 37.538085 1.222533 -1.613067 2.052623 3.606111
RightUpLeg 12.658002 -3.334932 -3.894009
RightLeg -6.201768 -0.000000 0.000000
RightFoot -12.603052 -17.259538 20.726942
RightToeBase 14.263999 -0.000000 -0.000000
LeftUpLeg 9.725788 -1.324823 -1.076012
LeftLeg -3.269412 -0.000000 0.000000
LeftFoot -7.207705 14.966092 -21.961697
LeftToeBase 9.447762 -0.000000 -0.000000
Spine 1.297792 8.653606 -4.789735
RightShoulder -7.008980 -17.957840 -24.880418
RightArm 3.440219 25.112706 22.708397
RightForeArm 12.549612 0.000000 10.831333
RightHand 2.523303 -0.000000 6.859173
RightHandThumb1 -24.326973 -0.000000 -32.862282
LeftShoulder 13.313353 11.251868 42.732886
LeftArm 1.371521 -47.976709 -40.261746
LeftForeArm 39.000718 -0.000000 12.679351
LeftHand -12.498668 -0.000000 -7.370267
LeftHandThumb1 -26.253704 0.000000 33.147579
Head -4.767264 -0.334758 8.526731
2652
root 0.863941 37.538624 1.218241 -1.620270 2.017436 3.603645
RightUpLeg 12.645958 -3.338370 -3.903466
RightLeg -6.188956 -0.000000 0.000000
RightFoot -12.574268 -17.214602 20.726736
RightToeBase 14.226312 -0.000000 -0.000000
LeftUpLeg 9.719122 -1.340321 -1.084351
LeftLeg -3.249293 -0.000000 0.000000
LeftFoot -7.234366 15.006456 -21.977353
LeftToeBase 9.434015 -0.000000 -0.000000
Spine 1.313424 8.690071 -4.775282
RightShoulder -6.999019 -17.982353 -24.880504
RightArm 3.457445 25.107380 22.695700
RightForeArm 12.498025 -0.000000 10.841825
RightHand 2.526184 -0.000000 6.864571
RightHandThumb1 -24.326973 -0.000000 -32.862282
LeftShoulder 13.297620 11.247359 42.715440
LeftArm 1.372210 -48.022691 -40.260259
LeftForeArm 38.990817 -0.000000 12.683411
LeftHand -12.506115 0.000000 -7.358378
LeftHandThumb1 -26.253704 0.000000 33.147579
Head -4.781283 -0.328018 8.515996
2653
root 0.864774 37.539032 1.215366 -1.629139 1.980652 3.599026
RightUpLeg 12.644284 -3.329754 -3.904091
RightLeg -6.193276 -0.000000 0.000000
RightFoot -12.583830 -17.191841 20.730530
RightToeBase 14.299830 -0.000000 -0.000000
LeftUpLeg 9.718085 -1.349386 -1.085506
LeftLeg -3.227491 -0.000000 0.000000
LeftFoot -7.263635 15.031986 -21.995259
LeftToeBase 9.424206 -0.000000 -0.000000
Spine 1.325123 8.723418 -4.763461
RightShoulder -6.986986 -17.977548 -24.880158
RightArm 3.461151 25.093927 22.680347
RightForeArm 12.449986 -0.000000 10.868229
RightHand 2.540800 0.000000 6.883807
RightHandThumb1 -24.326973 -0.000000 -32.862282
LeftShoulder 13.293166 11.231060 42.713569
LeftArm 1.332888 -48.058431 -40.261635
LeftForeArm 39.035189 -0.000000 12.722227
LeftHand -12.533266 0.000000 -7.235190
LeftHandThumb1 -26.253704 0.000000 33.147579
Head -4.783887 -0.332323 8.508695
2654
root 0.866661 37.539813 1.212775 -1.640435 1.939134 3.604565
RightUpLeg 12.643979 -3.323988 -3.918788
RightLeg -6.194558 -0.000000 0.000000
RightFoot -12.588717 -17.157534 20.763509
RightToeBase 14.343497 -0.000000 -0.000000
LeftUpLeg 9.717138 -1.338719 -1.098222
LeftLeg -3.205073 -0.000000 0.000000
LeftFoot -7.289126 15.056536 -22.017019
LeftToeBase 9.454006 -0.000000 -0.000000
Spine 1.338202 8.767807 -4.763035
RightShoulder -6.977241 -17.970058 -24.879570
RightArm 3.467516 25.065329 22.667611
RightForeArm 12.411460 0.000000 10.891163
RightHand 2.530498 -0.000000 6.859085
RightHandThumb1 -24.326973 -0.000000 -32.862282
LeftShoulder 13.284980 11.231334 42.701267
LeftArm 1.340768 -48.081028 -40.261106
LeftForeArm 39.057125 -0.000000 12.715993
LeftHand -12.578806 -0.000000 -7.247100
LeftHandThumb1 -26.253704 0.000000 33.147579
Head -4.786857 -0.315351 8.506697
2655
root 0.868877 37.540120 1.210668 -1.654334 1.903504 3.607045
RightUpLeg 12.652157 -3.297135 -3.926635
RightLeg -6.204192 -0.000000 0.000000
RightFoot -12.572720 -17.148313 20.770035
RightToeBase 14.351115 -0.000000 -0.000000
LeftUpLeg 9.724568 -1.363520 -1.114125
LeftLeg -3.193447 -0.000000 0.000000
LeftFoot -7.307551 15.115061 -22.003797
LeftToeBase 9.430185 -0.000000 -0.000000
Spine 1.353166 8.803224 -4.758447
RightShoulder -6.974854 -17.964640 -24.883872
RightArm 3.492417 25.069471 22.672688
RightForeArm 12.340529 -0.000000 10.918637
RightHand 2.525982 0.000000 6.847993
RightHandThumb1 -24.326973 -0.000000 -32.862282
LeftShoulder 13.278458 11.219038 42.695298
LeftArm 1.327574 -48.068861 -40.261255
LeftForeArm 39.086042 -0.000000 12.718911
LeftHand -12.581824 -0.000000 -7.238054
LeftHandThumb1 -26.253704 0.000000 33.147579
Head -4.784471 -0.317770 8.504304
